<svg width="513" height="415" viewBox="0 0 513 415" fill="none" xmlns="http://www.w3.org/2000/svg">
<path fill-rule="evenodd" clip-rule="evenodd" d="M55.0399 397.106L159.762 410.901C184.324 414.136 196.605 415.754 206.135 411.954C214.502 408.619 221.47 402.512 225.871 394.656C230.885 385.708 230.885 373.327 230.885 348.563V66.1686C230.885 41.0638 230.885 28.5115 225.783 19.5035C221.305 11.5963 214.224 5.48455 205.745 2.20839C196.086 -1.52391 183.662 0.305156 158.814 3.96328L54.0925 19.3805C35.031 22.1868 25.5003 23.5899 18.3344 28.2174C12.0192 32.2956 7.00631 38.0983 3.89004 44.9376C0.354004 52.6981 0.354004 62.3273 0.354004 81.5858V334.769C0.354004 354.3 0.354004 364.065 3.96476 371.895C7.14627 378.794 12.26 384.623 18.6871 388.677C25.9813 393.278 35.6677 394.554 55.0399 397.106ZM115.173 172.872C141.574 172.872 162.977 146.481 162.977 113.926C162.977 81.3703 141.574 54.979 115.173 54.979C88.7714 54.979 67.3688 81.3703 67.3688 113.926C67.3688 146.481 88.7714 172.872 115.173 172.872Z" fill="white" style="fill:white;fill-opacity:1;"/>
<path fill-rule="evenodd" clip-rule="evenodd" d="M457.668 397.106L352.946 410.901C328.384 414.136 316.103 415.754 306.573 411.954C298.206 408.619 291.238 402.512 286.837 394.656C281.823 385.708 281.823 373.327 281.823 348.563V66.1686C281.823 41.0638 281.823 28.5115 286.925 19.5035C291.403 11.5963 298.484 5.48455 306.963 2.20839C316.622 -1.52391 329.046 0.305156 353.894 3.96328L458.616 19.3805C477.677 22.1868 487.208 23.5899 494.374 28.2174C500.689 32.2956 505.702 38.0983 508.818 44.9376C512.354 52.6981 512.354 62.3273 512.354 81.5858V334.769C512.354 354.3 512.354 364.065 508.743 371.895C505.562 378.794 500.448 384.623 494.021 388.677C486.727 393.278 477.04 394.554 457.668 397.106ZM397.535 172.872C371.134 172.872 349.731 146.481 349.731 113.926C349.731 81.3703 371.134 54.979 397.535 54.979C423.937 54.979 445.339 81.3703 445.339 113.926C445.339 146.481 423.937 172.872 397.535 172.872Z" fill="white" style="fill:white;fill-opacity:1;"/>
</svg>
