<svg width="51" height="7" viewBox="0 0 51 7" fill="none" xmlns="http://www.w3.org/2000/svg">
<path fill-rule="evenodd" clip-rule="evenodd" d="M11.5 2.36963C9.98835 2.36963 9.28168 3.17611 8.89647 3.95554L8.89119 3.95293C8.27521 5.18096 6.98296 6.63044 4.50002 6.63044C2.01175 6.63044 0.718282 5.17464 0.103484 3.93064C-0.141208 3.43552 0.0618032 2.83578 0.556923 2.59109C1.05204 2.3464 1.65178 2.54941 1.89647 3.04453C2.28168 3.82396 2.98835 4.63044 4.50002 4.63044C6.01267 4.63044 6.72025 3.8227 7.10555 3.05209C7.12342 3.01636 7.14313 2.98216 7.16453 2.94956C7.80218 1.73386 9.09128 0.369629 11.5 0.369629C13.983 0.369629 15.2752 1.81911 15.8912 3.04714L15.8965 3.04453C16.2817 3.82396 16.9884 4.63044 18.5 4.63044C20.0127 4.63044 20.7202 3.8227 21.1056 3.05209L21.1108 3.05471C21.7285 1.81397 23.0216 0.369629 25.5 0.369629C27.983 0.369629 29.2752 1.81911 29.8912 3.04714L29.8965 3.04453C30.2817 3.82396 30.9884 4.63044 32.5 4.63044C34.0127 4.63044 34.7202 3.8227 35.1055 3.05209L35.1108 3.05471C35.7285 1.81397 37.0216 0.369629 39.5 0.369629C41.9066 0.369629 43.1946 1.73129 43.8324 2.93321C43.8558 2.96845 43.8772 3.00557 43.8965 3.04449C44.2817 3.82393 44.9884 4.63041 46.5 4.63041C48.0127 4.63041 48.7202 3.82267 49.1055 3.05205C49.3525 2.55808 49.9532 2.35785 50.4472 2.60484C50.9412 2.85183 51.1414 3.4525 50.8944 3.94648C50.2797 5.17587 48.9873 6.63041 46.5 6.63041C44.0914 6.63041 42.8023 5.2663 42.1646 4.05064C42.1432 4.018 42.1234 3.98376 42.1055 3.94798C41.7202 3.17737 41.0127 2.36963 39.5 2.36963C37.9884 2.36963 37.2817 3.17611 36.8965 3.95554L36.8912 3.95293C36.2752 5.18096 34.983 6.63044 32.5 6.63044C30.0216 6.63044 28.7285 5.1861 28.1108 3.94536L28.1056 3.94798C27.7202 3.17737 27.0127 2.36963 25.5 2.36963C23.9884 2.36963 23.2817 3.17611 22.8965 3.95554L22.8912 3.95293C22.2752 5.18096 20.983 6.63044 18.5 6.63044C16.0216 6.63044 14.7285 5.1861 14.1108 3.94536L14.1056 3.94798C13.7202 3.17737 13.0127 2.36963 11.5 2.36963Z" fill="white" style="fill:white;fill-opacity:1;"/>
</svg>
